<svg width="56.000000" height="56.000000" viewBox="0 0 56 56" fill="none" xmlns="http://www.w3.org/2000/svg" xmlns:xlink="http://www.w3.org/1999/xlink">
	<desc>
			Created with Pixso.
	</desc>
	<defs>
		<clipPath id="clip185_314">
			<rect id="Frame 21061" rx="0.000000" width="55.000000" height="55.000000" transform="translate(0.500000 0.500000)" fill="white" fill-opacity="0"/>
		</clipPath>
	</defs>
	<g clip-path="url(#clip185_314)">
		<path id="Subtract" d="M34.121 20.4645L41.1477 13.4378C42.3557 12.2298 42.3209 10.2402 40.9154 9.26923C38.32 7.47617 35.3337 6.20865 32.1103 5.62039C30.4303 5.31381 28.9997 6.69641 28.9997 8.40414L28.9997 18.3431C28.9997 21.0159 32.2311 22.3544 34.121 20.4645ZM18.3429 29L8.40385 29C6.69613 29 5.31353 30.4306 5.62011 32.1106C6.20835 35.334 7.47588 38.3203 9.26892 40.9157C10.2399 42.3212 12.2295 42.356 13.4375 41.148L20.4642 34.1213C22.3541 32.2314 21.0156 29 18.3429 29ZM11.8477 44.0211C11.8912 44.0649 11.9348 44.1085 11.9786 44.1519L11.8477 44.0211ZM15.084 46.7308C17.6794 48.5238 20.6657 49.7914 23.8891 50.3796C25.5691 50.6862 26.9997 49.3036 26.9997 47.5959L26.9997 37.6569C26.9997 34.9841 23.7683 33.6456 21.8784 35.5356L14.8517 42.5622C13.6438 43.7702 13.6785 45.7598 15.084 46.7308ZM37.6566 27L47.5956 27C49.3033 27 50.6859 25.5694 50.3793 23.8894C49.7911 20.666 48.5235 17.6797 46.7305 15.0843C45.7595 13.6788 43.7699 13.644 42.5619 14.852L35.5352 21.8787C33.6454 23.7686 34.9839 27 37.6566 27ZM21.8784 20.4645L14.8517 13.4378C13.6438 12.2298 13.6785 10.2402 15.084 9.26923C17.6794 7.47617 20.6657 6.20865 23.8891 5.62039C25.5691 5.31381 26.9997 6.69641 26.9997 8.40414L26.9997 18.3431C26.9997 21.0159 23.7683 22.3544 21.8784 20.4645ZM11.9784 11.8482C11.9347 11.8915 11.8913 11.935 11.848 11.9787L11.9784 11.8482ZM8.40385 27L18.3428 27C21.0156 27 22.3541 23.7686 20.4642 21.8787L13.4375 14.852C12.2295 13.644 10.2399 13.6788 9.26892 15.0843C7.47588 17.6797 6.20835 20.666 5.62011 23.8894C5.31353 25.5694 6.69613 27 8.40385 27ZM5.24971 28C5.24971 27.963 5.2498 27.9261 5.24998 27.8891L5.24998 28.1109C5.2498 28.0739 5.24971 28.037 5.24971 28ZM46.7305 40.9157C48.5235 38.3203 49.7911 35.334 50.3793 32.1106C50.6859 30.4306 49.3033 29 47.5956 29L37.6566 29C34.9838 29 33.6453 32.2314 35.5352 34.1213L42.5619 41.148C43.7699 42.356 45.7595 42.3212 46.7305 40.9157ZM34.121 35.5355L41.1477 42.5622C42.3557 43.7702 42.3209 45.7598 40.9154 46.7308C38.32 48.5238 35.3337 49.7914 32.1103 50.3796C30.4303 50.6862 28.9997 49.3036 28.9997 47.5959L28.9997 37.6569C28.9997 34.9841 32.2311 33.6456 34.121 35.5355Z" clip-rule="evenodd" fill="#6A54FF" fill-opacity="1.000000" fill-rule="evenodd"/>
		<circle id="Ellipse 1" cx="27.999733" cy="5.250000" r="3.250000" fill="#57E1FF" fill-opacity="1.000000"/>
		<circle id="Ellipse 1" cx="27.999733" cy="5.250000" r="3.750000" stroke="#000000" stroke-opacity="1.000000" stroke-width="1.000000"/>
		<circle id="Ellipse 2" cx="27.999733" cy="50.750000" r="3.250000" fill="#57E1FF" fill-opacity="1.000000"/>
		<circle id="Ellipse 2" cx="27.999733" cy="50.750000" r="3.750000" stroke="#000000" stroke-opacity="1.000000" stroke-width="1.000000"/>
		<circle id="Ellipse 3" r="3.250000" transform="matrix(0.707107 -0.707107 0.707107 0.707107 11.9131 11.9136)" fill="#57E1FF" fill-opacity="1.000000"/>
		<circle id="Ellipse 3" r="3.750000" transform="matrix(0.707107 -0.707107 0.707107 0.707107 11.9131 11.9136)" stroke="#000000" stroke-opacity="1.000000" stroke-width="1.000000"/>
		<circle id="Ellipse 4" r="3.250000" transform="matrix(0.707107 -0.707107 0.707107 0.707107 44.0865 44.0864)" fill="#57E1FF" fill-opacity="1.000000"/>
		<circle id="Ellipse 4" r="3.750000" transform="matrix(0.707107 -0.707107 0.707107 0.707107 44.0865 44.0864)" stroke="#000000" stroke-opacity="1.000000" stroke-width="1.000000"/>
		<circle id="Ellipse 5" r="3.250000" transform="matrix(-2.18557e-08 -1 1 -2.18557e-08 5.25 28)" fill="#57E1FF" fill-opacity="1.000000"/>
		<circle id="Ellipse 5" r="3.750000" transform="matrix(-2.18557e-08 -1 1 -2.18557e-08 5.25 28)" stroke="#000000" stroke-opacity="1.000000" stroke-width="1.000000"/>
		<circle id="Ellipse 6" r="3.250000" transform="matrix(-2.18557e-08 -1 1 -2.18557e-08 50.7497 28)" fill="#57E1FF" fill-opacity="1.000000"/>
		<circle id="Ellipse 6" r="3.750000" transform="matrix(-2.18557e-08 -1 1 -2.18557e-08 50.7497 28)" stroke="#000000" stroke-opacity="1.000000" stroke-width="1.000000"/>
		<circle id="Ellipse 7" r="3.250000" transform="matrix(-0.707107 -0.707107 0.707107 -0.707107 11.9132 44.0867)" fill="#57E1FF" fill-opacity="1.000000"/>
		<circle id="Ellipse 7" r="3.750000" transform="matrix(-0.707107 -0.707107 0.707107 -0.707107 11.9132 44.0867)" stroke="#000000" stroke-opacity="1.000000" stroke-width="1.000000"/>
		<circle id="Ellipse 8" r="3.250000" transform="matrix(-0.707107 -0.707107 0.707107 -0.707107 44.0865 11.9136)" fill="#57E1FF" fill-opacity="1.000000"/>
		<circle id="Ellipse 8" r="3.750000" transform="matrix(-0.707107 -0.707107 0.707107 -0.707107 44.0865 11.9136)" stroke="#000000" stroke-opacity="1.000000" stroke-width="1.000000"/>
	</g>
</svg>
