<svg width="56.000000" height="56.000000" viewBox="0 0 56 56" fill="none" xmlns="http://www.w3.org/2000/svg" xmlns:xlink="http://www.w3.org/1999/xlink">
	<desc>
			Created with Pixso.
	</desc>
	<defs>
		<clipPath id="clip185_303">
			<rect id="Frame 21059" rx="0.000000" width="55.000000" height="55.000000" transform="translate(0.500000 0.500000)" fill="white" fill-opacity="0"/>
		</clipPath>
	</defs>
	<g clip-path="url(#clip185_303)">
		<rect id="Rectangle 50" x="-28.000000" y="14.000000" rx="4.000000" width="34.000000" height="28.000000" fill="#6A54FF" fill-opacity="1.000000"/>
		<rect id="Rectangle 51" x="50.000000" y="14.000000" rx="4.000000" width="34.000000" height="28.000000" fill="#6A54FF" fill-opacity="1.000000"/>
		<rect id="Rectangle 49" x="8.000000" y="12.000000" rx="4.000000" width="40.000000" height="32.000000" fill="#57E1FF" fill-opacity="1.000000"/>
		<rect id="Frame 20" rx="0.000000" width="23.000000" height="23.000000" transform="translate(16.500000 16.500000)" fill="#FFFFFF" fill-opacity="0"/>
		<path id="Polygon 1" d="M34.23 29.33L24.84 34.68L24.81 34.7C24.09 35.1 23.72 35.31 23.43 35.29C23.11 35.26 22.83 35.1 22.66 34.83C22.5 34.59 22.5 34.17 22.5 33.34L22.5 22.63C22.5 21.81 22.5 21.4 22.66 21.15C22.83 20.88 23.11 20.72 23.42 20.69C23.72 20.67 24.08 20.87 24.8 21.27L24.84 21.3L34.23 26.65L34.24 26.65C34.94 27.07 35.29 27.28 35.43 27.54C35.57 27.83 35.57 28.16 35.42 28.44C35.29 28.7 34.94 28.91 34.23 29.33Z" fill="#000000" fill-opacity="1.000000" fill-rule="evenodd"/>
	</g>
</svg>
