<svg width="56.000000" height="56.000000" viewBox="0 0 56 56" fill="none" xmlns="http://www.w3.org/2000/svg" xmlns:xlink="http://www.w3.org/1999/xlink">
	<desc>
			Created with Pixso.
	</desc>
	<defs>
		<clipPath id="clip185_279">
			<rect id="Frame 21055" rx="0.000000" width="55.000000" height="55.000000" transform="translate(0.500000 0.500000)" fill="white" fill-opacity="0"/>
		</clipPath>
	</defs>
	<g clip-path="url(#clip185_279)">
		<path id="Rectangle 49" d="M7 6L49 6C51.2 6 53 7.79 53 10L53 16L3 16L3 10C3 7.79 4.79 6 7 6Z" fill="#6A54FF" fill-opacity="1.000000" fill-rule="nonzero"/>
		<path id="Rectangle 58" d="M29 18L53 18L53 46C53 48.2 51.2 50 49 50L29 50L29 18Z" fill="#6A54FF" fill-opacity="1.000000" fill-rule="nonzero"/>
		<path id="Rectangle 59" d="M3 18L27 18L27 50L7 50C4.79 50 3 48.2 3 46L3 18Z" fill="#57E1FF" fill-opacity="1.000000" fill-rule="nonzero"/>
		<rect id="Frame 27" rx="0.000000" width="23.000000" height="23.000000" transform="translate(3.500000 22.500000)" fill="#FFFFFF" fill-opacity="0"/>
		<path id="Vector 15" d="M17.5 28L11.5 34L17.5 40" stroke="#000000" stroke-opacity="1.000000" stroke-width="2.000000" stroke-linecap="round"/>
		<circle id="Ellipse 9" cx="8.000000" cy="11.000000" r="2.000000" fill="#ABF0FF" fill-opacity="1.000000"/>
		<circle id="Ellipse 10" cx="14.000000" cy="11.000000" r="2.000000" fill="#ABF0FF" fill-opacity="1.000000"/>
		<circle id="Ellipse 11" cx="20.000000" cy="11.000000" r="2.000000" fill="#ABF0FF" fill-opacity="1.000000"/>
	</g>
</svg>
