<svg width="56.000000" height="56.000000" viewBox="0 0 56 56" fill="none" xmlns="http://www.w3.org/2000/svg" xmlns:xlink="http://www.w3.org/1999/xlink">
	<desc>
			Created with Pixso.
	</desc>
	<defs>
		<clipPath id="clip185_268">
			<rect id="Frame 21053" rx="0.000000" width="55.000000" height="55.000000" transform="translate(0.500000 0.500000)" fill="white" fill-opacity="0"/>
		</clipPath>
	</defs>
	<g clip-path="url(#clip185_268)">
		<rect id="Rectangle 49" x="3.000000" y="3.000000" rx="4.000000" width="33.000000" height="33.000000" fill="#6A54FF" fill-opacity="1.000000"/>
		<rect id="Rectangle 53" x="3.000000" y="3.000000" rx="4.000000" width="33.000000" height="33.000000" fill="#6A54FF" fill-opacity="1.000000"/>
		<rect id="Rectangle 50" x="20.000000" y="20.000000" rx="4.000000" width="33.000000" height="33.000000" fill="#57E1FF" fill-opacity="1.000000"/>
		<g opacity="0.500000">
			<path id="Rectangle 51" d="M24 20L36 20L36 32C36 34.2 34.2 36 32 36L24 36C21.79 36 20 34.2 20 32L20 24C20 21.79 21.79 20 24 20Z" fill="#FFFFFF" fill-opacity="1.000000" fill-rule="nonzero"/>
		</g>
		<rect id="Rectangle 52" x="3.000000" y="3.000000" rx="4.000000" width="33.000000" height="33.000000" stroke="#030718" stroke-opacity="1.000000" stroke-width="1.500000"/>
		<rect id="Rectangle 54" x="20.000000" y="20.000000" rx="4.000000" width="33.000000" height="33.000000" stroke="#030718" stroke-opacity="1.000000" stroke-width="1.500000"/>
	</g>
</svg>
